# xmcd
#
# Track frame offsets: 
#        182
#        16610
#        33552
#        50940
#        64727
#        76107
#        90770
#        106112
#        121602
#        136815
#        151112
#        163285
#
# Disc length: 2357 seconds
#
# Revision: 2
# Processed by: cddbd v1.5.1PL2 Copyright (c) Steve Scherf et al.
# Submitted via: ExactAudioCopy v0.95b4
#
DISCID=8209330c
DTITLE=Samson and Gert - Samson Volume 1
DYEAR=1991
DGENRE=Folk
TTITLE0=ER Zit Meer In Een Liedje
TTITLE1=Ik Wil Niet In Bad
TTITLE2=Slaapliedje
TTITLE3=Vissen
TTITLE4=Samsonrock
TTITLE5=Niet Ver Weg
TTITLE6=Feest Vandaag
TTITLE7=Ik Ben De Sigaar
TTITLE8=De Wijde Wereld
TTITLE9=Verliefd Zijn
TTITLE10=Neefje Kwik
TTITLE11=Samsonlied
EXTD=
EXTT0=
EXTT1=
EXTT2=
EXTT3=
EXTT4=
EXTT5=
EXTT6=
EXTT7=
EXTT8=
EXTT9=
EXTT10=
EXTT11=
PLAYORDER=
